<?xml version="1.0" encoding="utf-8"?>
<!-- Svg Vector Icons : http://www.onlinewebfonts.com/icon -->
<!DOCTYPE svg PUBLIC "-//W3C//DTD SVG 1.1//EN" "http://www.w3.org/Graphics/SVG/1.1/DTD/svg11.dtd">
<svg version="1.1" xmlns="http://www.w3.org/2000/svg" xmlns:xlink="http://www.w3.org/1999/xlink" x="0px" y="0px" viewBox="0 0 256 256" enable-background="new 0 0 256 256" xml:space="preserve">
<metadata> Svg Vector Icons : http://www.onlinewebfonts.com/icon </metadata>
<g><g><g><path fill="#000000" d="M95,43c0-18.2,14.8-33,33-33c18.2,0,33,14.8,33,33s-14.8,33-33,33C109.8,76,95,61.2,95,43z M143.9,98.5c0.3-7.2,2.8-13.8,6.8-19.3c-2.8-0.6-5.7-0.9-8.6-0.9h-28c-3,0-5.8,0.3-8.6,0.9c4.2,5.9,6.8,13.1,6.8,20.8c5.2-2.8,11.1-4.5,17.3-4.5C134.6,95.5,139.5,96.6,143.9,98.5z M149.5,101.5c9.6,6,16.3,16.2,17.5,28c3.9,1.8,8.3,2.9,12.9,2.9c16.8,0,30.4-13.6,30.4-30.4c0-16.8-13.6-30.4-30.4-30.4C163.2,71.5,149.7,84.9,149.5,101.5z M129.5,163.7c16.8,0,30.4-13.6,30.4-30.4c0-16.8-13.6-30.4-30.4-30.4c-16.8,0-30.4,13.6-30.4,30.4S112.7,163.7,129.5,163.7z M142.4,165.8h-25.8c-21.5,0-38.9,17.5-38.9,38.9v31.6l0.1,0.5l2.2,0.7c20.5,6.4,38.3,8.5,52.9,8.5c28.6,0,45.2-8.2,46.2-8.7l2-1h0.2v-31.5C181.4,183.3,163.9,165.8,142.4,165.8z M192.7,134.4h-25.6c-0.3,10.2-4.6,19.5-11.6,26.1c19.1,5.7,33,23.4,33,44.3v9.7c25.3-0.9,39.9-8.1,40.8-8.6l2-1h0.2v-31.6C231.7,151.9,214.2,134.4,192.7,134.4z M76.2,132.3c5.9,0,11.5-1.7,16.2-4.7c1.5-9.7,6.7-18.2,14.1-24c0-0.6,0.1-1.1,0.1-1.7c0-16.8-13.6-30.4-30.4-30.4c-16.8,0-30.4,13.6-30.4,30.4C45.8,118.7,59.4,132.3,76.2,132.3z M103.5,160.5c-6.9-6.6-11.2-15.8-11.6-26c-0.9-0.1-1.9-0.1-2.9-0.1H63.3c-21.5,0-38.9,17.5-38.9,38.9v31.6l0.1,0.5l2.2,0.7c16.4,5.1,31.1,7.5,43.9,8.2v-9.5C70.4,183.9,84.4,166.2,103.5,160.5z"/></g><g></g><g></g><g></g><g></g><g></g><g></g><g></g><g></g><g></g><g></g><g></g><g></g><g></g><g></g><g></g></g></g>
</svg>