<?xml version="1.0" encoding="utf-8"?>
<!-- Svg Vector Icons : http://www.onlinewebfonts.com/icon -->
<!DOCTYPE svg PUBLIC "-//W3C//DTD SVG 1.1//EN" "http://www.w3.org/Graphics/SVG/1.1/DTD/svg11.dtd">
<svg version="1.1" xmlns="http://www.w3.org/2000/svg" xmlns:xlink="http://www.w3.org/1999/xlink" x="0px" y="0px" viewBox="0 0 256 256" enable-background="new 0 0 256 256" xml:space="preserve">
<metadata> Svg Vector Icons : http://www.onlinewebfonts.com/icon </metadata>
<g><g><path fill="#000000" d="M142.7,35.3h-29.2c-4.7,0-8.4,3.8-8.4,8.4s3.8,8.4,8.4,8.4h29.2c4.7,0,8.4-3.8,8.4-8.4S147.3,35.3,142.7,35.3z M111,182.6c1.6,1.9,3.9,4.4,6.3,4.4c0,0,0.1,0,0.2,0c2.4,0,4.7-2.3,6.3-4.1l43.5-48.9c3.1-3.4,2.8-9.1-0.6-12.2c-3.4-3.1-8.8-3-11.9,0.5l-36.9,40.8l-16.1-19.6c-2.9-3.6-8.3-4.1-11.8-1.2c-3.6,2.9-4.1,8.9-1.1,12.5L111,182.6z M246,76.5c0-0.9-0.2-1.7-0.5-2.6c0-0.2-0.1-0.3-0.2-0.5c0-0.1,0-0.2-0.1-0.3l-28.6-58.4c-1.4-2.9-4.3-4.7-7.6-4.7H47.1c-3.2,0-6.2,1.9-7.6,4.7L10.9,73.2c0,0.1,0,0.2-0.1,0.3c-0.1,0.2-0.1,0.3-0.2,0.5c-0.3,0.8-0.5,1.7-0.5,2.6c0,0.1-0.1,0.2-0.1,0.3v160.7c0,4.7,3.8,8.4,8.4,8.4h219.1c4.7,0,8.4-3.8,8.4-8.4V76.9C246,76.7,246,76.6,246,76.5z M52.3,26.9h151.4L224.1,69H32L52.3,26.9z M229.2,229.1H26.9V85.9h202.3V229.1L229.2,229.1z"/></g></g>
</svg>